<svg xmlns="http://www.w3.org/2000/svg" viewBox="0 0 841.9 595.3">
  <g fill="#61DAFB">
    <circle cx="420.9" cy="296.5" r="45.7" />
    <path d="M520.5 78.1c-5.2-9-15.5-14.3-26.3-13.1-11.1 1.2-20.3 8.3-24.6 18.4-13.6 31.4-35.5 57.4-63.7 75.2-28.2-17.8-50.1-43.8-63.7-75.2-4.3-10.1-13.5-17.2-24.6-18.4-10.8-1.2-21.1 4.1-26.3 13.1-5.2 9-4.7 20.3 1.2 28.8 19.6 27.3 30.8 59.3 32.6 92.7-1.8 33.4-13 65.4-32.6 92.7-5.9 8.5-6.4 19.8-1.2 28.8 5.2 9 15.5 14.3 26.3 13.1 11.1-1.2 20.3-8.3 24.6-18.4 13.6-31.4 35.5-57.4 63.7-75.2 28.2 17.8 50.1 43.8 63.7 75.2 4.3 10.1 13.5 17.2 24.6 18.4 10.8 1.2 21.1-4.1 26.3-13.1 5.2-9 4.7-20.3-1.2-28.8-19.6-27.3-30.8-59.3-32.6-92.7 1.8-33.4 13-65.4 32.6-92.7 5.9-8.5 6.4-19.8 1.2-28.8z" />
  </g>
</svg>